<svg xmlns="http://www.w3.org/2000/svg" viewBox="0 0 32 32" width="64" height="64"><g fill="none" stroke="#d6b76f" stroke-width="1.8" stroke-linecap="round" stroke-linejoin="round"><line x1="13" y1="29" x2="13" y2="20"/><line x1="13" y1="20" x2="6" y2="20"/><line x1="6" y1="20" x2="3" y2="16"/><line x1="3" y1="16" x2="7" y2="11"/><line x1="7" y1="11" x2="6" y2="7"/><line x1="6" y1="7" x2="11" y2="5"/><line x1="11" y1="5" x2="16" y2="2"/><line x1="16" y1="2" x2="21" y2="5"/><line x1="21" y1="5" x2="26" y2="7"/><line x1="26" y1="7" x2="25" y2="11"/><line x1="25" y1="11" x2="29" y2="16"/><line x1="29" y1="16" x2="26" y2="20"/><line x1="26" y1="20" x2="19" y2="20"/><line x1="19" y1="20" x2="19" y2="29"/><line x1="10" y1="29" x2="22" y2="29"/></g></svg>